<svg xmlns="http://www.w3.org/2000/svg" viewBox="0 0 64 64" id="brain-idea"><g><path fill="#ffde59" d="M51,26a18.956,18.956,0,0,1-8,15.48,9.754,9.754,0,0,0-4,7.99V50H25v-.53a9.874,9.874,0,0,0-4.06-8.04A19,19,0,1,1,51,26Z"></path><path fill="#87858e" d="M40,54a2.006,2.006,0,0,1,2,2,2.015,2.015,0,0,1-2,2H24a2.006,2.006,0,0,1-2-2,2.015,2.015,0,0,1,2-2Z"></path><path fill="#535357" d="M25.13 58H38.87A3.992 3.992 0 0 1 35 61H29A3.992 3.992 0 0 1 25.13 58zM40 50a2.006 2.006 0 0 1 2 2 2.015 2.015 0 0 1-2 2H24a2.006 2.006 0 0 1-2-2 2.015 2.015 0 0 1 2-2z"></path><path fill="#b2fa09" d="M27 12a3 3 0 0 0-3 3 3 3 0 0 0-2.131 5.11A5.994 5.994 0 0 0 20.35 31.377 3.989 3.989 0 0 0 24 37a3 3 0 0 0 6 0V15A3 3 0 0 0 27 12zM37 12a3 3 0 0 1 3 3 3 3 0 0 1 2.131 5.11A5.994 5.994 0 0 1 43.65 31.377 3.989 3.989 0 0 1 40 37a3 3 0 0 1-6 0V15A3 3 0 0 1 37 12z"></path><path fill="#231f20" d="M27 11a4.007 4.007 0 0 0-3.9 3.1 4 4 0 0 0-2.8 5.438 6.994 6.994 0 0 0-1.166 12.294A4.864 4.864 0 0 0 19 33a5.008 5.008 0 0 0 4.106 4.92A4 4 0 0 0 31 37V15A4 4 0 0 0 27 11zm2 26a2 2 0 1 1-3.3-1.518L24.39 33.969a3.99 3.99 0 0 0-1.207 1.9 2.971 2.971 0 0 1-1.919-4.089l0-.012A3.021 3.021 0 0 1 22.5 30.4l-1-1.732A5.006 5.006 0 0 0 20.022 30a4.985 4.985 0 0 1 2.033-8.906 5.05 5.05 0 0 1 2.65.2l.682-1.881a7.085 7.085 0 0 0-3.085-.37A1.977 1.977 0 0 1 22 18a2 2 0 0 1 1.194-1.827 3.959 3.959 0 0 0 .978 1.655l1.414-1.414A2 2 0 1 1 29 15zM43.693 19.54A4 4 0 0 0 40.9 14.1 4 4 0 0 0 33 15V37a4 4 0 0 0 7.894.92A5.008 5.008 0 0 0 45 33a4.864 4.864 0 0 0-.141-1.166A6.994 6.994 0 0 0 43.693 19.54zM43.978 30A5.006 5.006 0 0 0 42.5 28.67l-1 1.732a3.021 3.021 0 0 1 1.232 1.37l0 .012a2.971 2.971 0 0 1-1.919 4.089 3.99 3.99 0 0 0-1.207-1.9L38.3 35.482A2 2 0 1 1 35 37V15a2 2 0 1 1 3.414 1.414l1.414 1.414a3.959 3.959 0 0 0 .978-1.655A2 2 0 0 1 42 18a1.98 1.98 0 0 1-.3 1.047 7.085 7.085 0 0 0-3.085.37L39.3 21.3A5.008 5.008 0 0 1 46 26 4.952 4.952 0 0 1 43.978 30z"></path><path fill="#231f20" d="M56,27V25H51.972c-.016-.339-.033-.678-.067-1.019a19.7,19.7,0,0,0-2.116-7.1l3.495-2.018-1-1.732-3.5,2.02a20.209,20.209,0,0,0-5.938-5.941l2.019-3.5-1.732-1L41.12,8.2a19.7,19.7,0,0,0-6.8-2.077c-.443-.05-.881-.058-1.321-.08V2H31V6.046a19.7,19.7,0,0,0-8.115,2.167l-2.019-3.5-1.732,1,2.023,3.5a20.234,20.234,0,0,0-2.479,1.865,19.971,19.971,0,0,0-3.472,4.065l-3.49-2.015-1,1.732L14.2,16.88A20.019,20.019,0,0,0,12.027,25H8v2h4.03a19.988,19.988,0,0,0,2.178,8.118l-3.492,2.016,1,1.732,3.5-2.019a20,20,0,0,0,5.209,5.46,7.982,7.982,0,0,1,.687.556l-1.975,3.421,1.732,1L22.5,44.456A9.017,9.017,0,0,1,23.972,49a2.985,2.985,0,0,0-2.192,5A2.987,2.987,0,0,0,24,59h.422A4.984,4.984,0,0,0,29,62h6a4.984,4.984,0,0,0,4.578-3H40a2.987,2.987,0,0,0,2.22-5,2.985,2.985,0,0,0-2.192-5,9.011,9.011,0,0,1,1.48-4.534l1.626,2.815,1.732-1-1.974-3.419a8.487,8.487,0,0,1,.749-.611A20.05,20.05,0,0,0,48.81,36.86l3.474,2.006,1-1.732-3.469-2A19.823,19.823,0,0,0,51.974,27ZM35,60H29a2.993,2.993,0,0,1-2.233-1H37.233A2.993,2.993,0,0,1,35,60Zm5-3H24a1,1,0,0,1,0-2H40a1,1,0,0,1,0,2Zm1-5a1,1,0,0,1-1,1H24a1,1,0,0,1,0-2H40A1,1,0,0,1,41,52Zm1.477-11.372A10.854,10.854,0,0,0,38.028,49H25.972a10.707,10.707,0,0,0-4.393-8.325,18,18,0,1,1,28.336-16.5A17.855,17.855,0,0,1,42.477,40.628Z"></path></g></svg>